<svg width="25" height="24" viewBox="0 0 25 24" fill="none" xmlns="http://www.w3.org/2000/svg">
<path fill-rule="evenodd" clip-rule="evenodd" d="M19.5998 19.16C20.1898 18.26 20.4098 17.8 20.8598 16.79C17.5398 15.53 17.0098 10.8 20.2898 8.99C19.2898 7.73 17.8798 7 16.5498 7C15.5898 7 14.9298 7.25 14.3398 7.48C13.8398 7.67 13.3898 7.84 12.8298 7.84C12.2298 7.84 11.6998 7.65 11.1398 7.45C10.5398 7.23 9.89983 7 9.09983 7C7.60983 7 6.01983 7.91 5.00983 9.47C3.58983 11.67 3.83983 15.79 6.12983 19.31C6.94983 20.57 8.04984 21.98 9.47984 22C10.0798 22.01 10.4698 21.83 10.8998 21.64C11.3898 21.42 11.9198 21.18 12.8498 21.18C13.7798 21.17 14.2998 21.42 14.7898 21.64C15.2098 21.83 15.5898 22.01 16.1798 22C17.6198 21.98 18.7798 20.42 19.5998 19.16Z" fill="white"/>
<path fill-rule="evenodd" clip-rule="evenodd" d="M16.3399 2C16.4999 3.1 16.0499 4.19 15.4599 4.95C14.8299 5.77 13.7299 6.41 12.6699 6.37C12.4799 5.31 12.9699 4.22 13.5699 3.49C14.2399 2.69 15.3699 2.07 16.3399 2Z" fill="white"/>
</svg>
