<svg width="25" height="24" viewBox="0 0 25 24" fill="none" xmlns="http://www.w3.org/2000/svg">
<path fill-rule="evenodd" clip-rule="evenodd" d="M18.3697 19.5487L15.2578 17.0371C16.151 16.3946 16.8467 15.4949 17.2365 14.4464H12.0576V10.5312H21.2957C21.4296 11.1665 21.5001 11.8252 21.5001 12.5003C21.5001 12.8338 21.4829 13.1633 21.4494 13.4879C21.2018 15.885 20.0628 18.0176 18.3697 19.5487Z" fill="#4285F4"/>
<mask id="mask0_204_5099" style="mask-type:alpha" maskUnits="userSpaceOnUse" x="3" y="14" width="16" height="9">
<path d="M3.53613 16.8195L6.72595 14.3428C7.48721 16.5219 9.56091 18.0851 11.9997 18.0851C13.2141 18.0851 14.3379 17.6976 15.2542 17.0394L18.3686 19.5493C16.6837 21.0726 14.45 22.0003 11.9997 22.0003C8.30838 22.0003 5.10876 19.8949 3.53613 16.8195Z" fill="white"/>
</mask>
<g mask="url(#mask0_204_5099)">
<path d="M3.53613 16.8195L6.72595 14.3428C7.48721 16.5219 9.56091 18.0851 11.9997 18.0851C13.2141 18.0851 14.3379 17.6976 15.2542 17.0394L18.3686 19.5493C16.6837 21.0726 14.45 22.0003 11.9997 22.0003C8.30838 22.0003 5.10876 19.8949 3.53613 16.8195Z" fill="#34A853"/>
</g>
<mask id="mask1_204_5099" style="mask-type:alpha" maskUnits="userSpaceOnUse" x="2" y="8" width="5" height="9">
<path d="M3.57719 8.10156L6.76446 10.5512C6.5386 11.1578 6.41515 11.8143 6.41515 12.4997C6.41515 13.1706 6.53345 13.8138 6.75033 14.4098L3.54295 16.8317C2.87624 15.5327 2.5 14.0601 2.5 12.4997C2.5 10.9127 2.88913 9.41657 3.57719 8.10156Z" fill="white"/>
</mask>
<g mask="url(#mask1_204_5099)">
<path d="M3.57719 8.10156L6.76446 10.5512C6.5386 11.1578 6.41515 11.8143 6.41515 12.4997C6.41515 13.1706 6.53345 13.8138 6.75033 14.4098L3.54295 16.8317C2.87624 15.5327 2.5 14.0601 2.5 12.4997C2.5 10.9127 2.88913 9.41657 3.57719 8.10156Z" fill="#E8C33D"/>
</g>
<mask id="mask2_204_5099" style="mask-type:alpha" maskUnits="userSpaceOnUse" x="3" y="3" width="16" height="8">
<path d="M6.76442 10.5515L3.57715 8.10191C5.16386 5.06942 8.34024 3 12 3C14.6313 3 17.0129 4.06984 18.7332 5.79829L15.9749 8.57692C14.9622 7.55099 13.5554 6.91515 12 6.91515C9.60087 6.91515 7.55509 8.42787 6.76442 10.5515Z" fill="white"/>
</mask>
<g mask="url(#mask2_204_5099)">
<path d="M6.76442 10.5515L3.57715 8.10191C5.16386 5.06942 8.34024 3 12 3C14.6313 3 17.0129 4.06984 18.7332 5.79829L15.9749 8.57692C14.9622 7.55099 13.5554 6.91515 12 6.91515C9.60087 6.91515 7.55509 8.42787 6.76442 10.5515Z" fill="#EA4335"/>
</g>
</svg>
